<?xml version="1.0" encoding="UTF-8"?>
<!DOCTYPE svg PUBLIC "-//W3C//DTD SVG 1.1//EN" "http://www.w3.org/Graphics/SVG/1.1/DTD/svg11.dtd">
<!-- Creator: CorelDRAW 2021 (64-Bit) -->
<svg xmlns="http://www.w3.org/2000/svg" xml:space="preserve" width="285.094mm" height="400.182mm" version="1.1" style="shape-rendering:geometricPrecision; text-rendering:geometricPrecision; image-rendering:optimizeQuality; fill-rule:evenodd; clip-rule:evenodd"
viewBox="0 0 1764.81 2477.24"
 xmlns:xlink="http://www.w3.org/1999/xlink"
 xmlns:xodm="http://www.corel.com/coreldraw/odm/2003">
 <defs>
  <style type="text/css">
   <![CDATA[
    .fil3 {fill:white}
    .fil1 {fill:url(#id0)}
    .fil0 {fill:url(#id1)}
    .fil2 {fill:url(#id2)}
    .fil4 {fill:url(#id3)}
   ]]>
  </style>
  <linearGradient id="id0" gradientUnits="userSpaceOnUse" x1="718" y1="1637.41" x2="440.27" y2="2283.96">
   <stop offset="0" style="stop-opacity:1; stop-color:#6C2631"/>
   <stop offset="0.329412" style="stop-opacity:1; stop-color:#9D2B3F"/>
   <stop offset="1" style="stop-opacity:1; stop-color:#9D2B3F"/>
  </linearGradient>
  <linearGradient id="id1" gradientUnits="userSpaceOnUse" x1="1087.37" y1="1720.72" x2="1395.46" y2="2443.55">
   <stop offset="0" style="stop-opacity:1; stop-color:#5B242D"/>
   <stop offset="0.329412" style="stop-opacity:1; stop-color:#8C293B"/>
   <stop offset="1" style="stop-opacity:1; stop-color:#8C293B"/>
  </linearGradient>
  <linearGradient id="id2" gradientUnits="userSpaceOnUse" x1="279.58" y1="406.61" x2="1523.8" y2="1388.66">
   <stop offset="0" style="stop-opacity:1; stop-color:#F2BE31"/>
   <stop offset="1" style="stop-opacity:1; stop-color:#F18C32"/>
  </linearGradient>
  <linearGradient id="id3" gradientUnits="userSpaceOnUse" xlink:href="#id2" x1="474.26" y1="560.28" x2="1316.66" y2="1225.18">
  </linearGradient>
 </defs>
 <g id="Layer_x0020_1">
  <metadata id="CorelCorpID_0Corel-Layer"/>
  <g id="_2413176912880">
   <polygon class="fil0" points="1312.42,1436.81 1639.17,2241.64 1271.62,2164.66 1272.91,2164.14 1063.01,2475.53 736.27,1670.72 "/>
   <polygon class="fil1" points="1036.5,1677.11 698.45,2477.24 492.97,2162.92 494.24,2163.46 125.65,2235.24 463.7,1435.1 "/>
   <path class="fil2" d="M1764.81 882.42c0,45.57 -55.63,86.24 -62.5,129.9 -7.04,44.8 33.24,100.62 19.53,142.84 -13.94,42.96 -79.44,64.42 -99.7,104.13 -20.48,40.09 0.48,105.7 -25.82,141.82 -26.42,36.31 -95.32,36.53 -127,68.2 -31.68,31.7 -31.89,100.6 -68.2,127.03 -36.14,26.3 -101.74,5.31 -141.84,25.79 -39.68,20.26 -61.17,85.77 -104.13,99.71 -42.21,13.71 -98.02,-26.56 -142.84,-19.53 -43.65,6.85 -84.34,62.5 -129.9,62.5 -45.57,0 -86.26,-55.65 -129.9,-62.5 -44.82,-7.04 -100.62,33.23 -142.84,19.53 -42.97,-13.94 -64.44,-79.45 -104.13,-99.71 -40.1,-20.48 -105.7,0.5 -141.83,-25.79 -36.31,-26.43 -36.52,-95.35 -68.2,-127.03 -31.68,-31.68 -100.59,-31.89 -127.02,-68.2 -26.3,-36.12 -5.33,-101.73 -25.8,-141.82 -20.26,-39.7 -85.76,-61.17 -99.71,-104.13 -13.71,-42.23 26.57,-98.04 19.53,-142.84 -6.86,-43.64 -62.5,-84.33 -62.5,-129.9 0,-45.59 55.64,-86.26 62.5,-129.92 7.04,-44.8 -33.24,-100.62 -19.53,-142.83 13.95,-42.97 79.45,-64.45 99.71,-104.13 20.47,-40.1 -0.5,-105.7 25.8,-141.84 26.43,-36.31 95.34,-36.52 127.02,-68.2 31.68,-31.68 31.89,-100.59 68.2,-127.02 36.14,-26.3 101.74,-5.32 141.83,-25.8 39.69,-20.26 61.16,-85.76 104.13,-99.72 42.22,-13.69 98.03,26.57 142.84,19.53 43.65,-6.84 84.33,-62.5 129.9,-62.5 45.57,0 86.26,55.65 129.9,62.5 44.82,7.04 100.63,-33.22 142.84,-19.53 42.96,13.96 64.44,79.46 104.13,99.72 40.1,20.47 105.7,-0.5 141.84,25.8 36.31,26.43 36.53,95.34 68.2,127.02 31.68,31.68 100.58,31.89 127,68.2 26.3,36.14 5.34,101.73 25.82,141.84 20.26,39.68 85.76,61.16 99.7,104.13 13.71,42.21 -26.57,98.03 -19.53,142.83 6.87,43.66 62.5,84.33 62.5,129.92z"/>
   <path class="fil3" d="M1541.45 882.42c0,363.98 -295.06,659.05 -659.05,659.05 -363.98,0 -659.05,-295.06 -659.05,-659.05 0,-363.99 295.07,-659.06 659.05,-659.06 363.98,0 659.05,295.07 659.05,659.06z"/>
   <path class="fil4" d="M1479.42 882.42c0,329.71 -267.3,596.99 -597.01,596.99 -329.72,0 -597,-267.28 -597,-596.99 0,-329.72 267.29,-597.01 597,-597.01 329.71,0 597.01,267.29 597.01,597.01z"/>
   <polygon class="fil3" points="1255.45,640.67 818.07,1187.95 771.34,1246.41 711.85,1196.48 509.37,1026.52 640.83,895.06 754.03,1029.91 1086.01,518.42 "/>
  </g>
 </g>
</svg>
